<svg viewBox="0 0 294 54" fill="none" xmlns="http://www.w3.org/2000/svg">
<path d="M195.063 52.68V5.95996H212.471C221.879 5.95996 228.599 11.72 228.599 19.912C228.599 26.76 223.863 32.008 216.759 33.544L231.095 52.68H219.767L206.583 33.992H204.151V52.68H195.063ZM204.151 26.632H211.255C215.671 26.632 218.935 23.88 218.935 20.104C218.935 16.392 215.735 13.704 211.255 13.704H204.151V26.632Z" fill="black"/>
<path d="M178.938 52.68V5.95996H188.026V52.68H178.938Z" fill="black"/>
<path d="M166.892 38.856L174.38 44.808C169.516 50.504 162.668 53.64 155.116 53.64C141.1 53.64 130.22 42.952 130.22 29.192C130.22 15.56 141.036 5 155.116 5C162.796 5 169.452 8.136 173.996 13.768L166.508 19.272C163.756 15.816 159.532 13.768 154.988 13.768C146.604 13.768 140.012 20.616 140.012 29.256C140.012 37.96 146.668 44.872 155.116 44.872C159.724 44.872 163.756 42.824 166.892 38.856Z" fill="black"/>
<path d="M124.485 5.95996V52.68H115.269L91.7815 20.424H91.5255V52.68H82.4375V5.95996H91.5895L115.077 38.024H115.397V5.95996H124.485Z" fill="black"/>
<path d="M29.5575 52.68L49.4615 5.95996H59.0615L78.5815 52.68H68.7255L64.8215 43.08H43.1895L39.1575 52.68H29.5575ZM46.5175 35.016H61.4935L54.0695 16.904L46.5175 35.016Z" fill="black"/>
<path d="M0 52.68V5.95996H17.984C27.392 5.95996 34.112 11.976 34.112 20.36C34.112 28.872 27.392 35.016 17.984 35.016H9.088V52.68H0ZM9.088 26.952H16.704C21.12 26.952 24.448 24.136 24.448 20.36C24.448 16.712 21.184 13.96 16.768 13.96H9.088V26.952Z" fill="black"/>
<path d="M286.888 51V40.218H282.748V37.86H293.602V40.218H289.462V51H286.888Z" fill="black"/>
<path d="M272.864 49.794L274.214 47.67C275.15 48.39 276.32 48.84 277.346 48.84C278.534 48.84 279.326 48.264 279.326 47.4C279.326 46.68 278.768 46.176 277.31 45.582L276.77 45.348C274.412 44.394 273.404 43.206 273.404 41.442C273.404 39.12 275.132 37.59 277.742 37.59C279.164 37.59 280.766 38.04 281.774 38.706L280.496 40.83C279.524 40.272 278.642 39.984 277.868 39.984C276.824 39.984 276.068 40.524 276.068 41.316C276.068 41.982 276.626 42.504 278.192 43.152L278.822 43.422C281.072 44.358 282.026 45.51 282.026 47.238C282.026 49.668 280.154 51.27 277.418 51.27C275.78 51.27 274.016 50.694 272.864 49.794Z" fill="black"/>
<path d="M258.516 51L264.114 37.86H266.814L272.304 51H269.532L268.434 48.3H262.35L261.216 51H258.516ZM263.286 46.032H267.498L265.41 40.938L263.286 46.032Z" fill="black"/>
<path d="M249.886 51V37.86H252.442V48.642H257.734V51H249.886Z" fill="black"/>
<path d="M238.777 51V37.86H243.835C246.481 37.86 248.371 39.552 248.371 41.91C248.371 44.304 246.481 46.032 243.835 46.032H241.333V51H238.777ZM241.333 43.764H243.475C244.717 43.764 245.653 42.972 245.653 41.91C245.653 40.884 244.735 40.11 243.493 40.11H241.333V43.764Z" fill="black"/>
<path d="M251.611 9.75L265.5 25.2534L279.389 9.75H251.611Z" stroke="black" stroke-width="5"/>
</svg>
